# xmcd CD database file
#
# Track frame offsets:
#	150
#	19560
#	49342
#	72040
#	91675
#	115222
#	138280
#	159425
#	182497
#	205122
#
# Disc length: 3073 seconds
#
# Revision: 3
# Processed by: cddbd v1.5.2PL0 Copyright (c) Steve Scherf et al.
# Submitted via: CDex 1.70beta2
#
DISCID=770bff0a
DTITLE=Grover Washington Jr - Soulful Strut
DYEAR=1996
DGENRE=Jazz
TTITLE0=Soulful Strut
TTITLE1=Can You Stop The Rain
TTITLE2=Play That Groove For Me
TTITLE3=Bordertown
TTITLE4=I Can Count The Times
TTITLE5=Village Groove
TTITLE6=Headman's Haunt
TTITLE7=Poacher Man
TTITLE8=Mystical Force
TTITLE9=Uptown
EXTD=YEAR: 1996
EXTT0=
EXTT1=
EXTT2=
EXTT3=
EXTT4=
EXTT5=
EXTT6=
EXTT7=
EXTT8=
EXTT9=
PLAYORDER=
